<svg width="41" height="40" viewBox="0 0 41 40" fill="none" xmlns="http://www.w3.org/2000/svg">
<path d="M40.2214 11.7534C40.1254 9.6237 39.7813 8.16653 39.2932 6.89352C38.7811 5.58047 38.101 4.45957 36.9888 3.35468C35.8765 2.2498 34.7643 1.55324 33.452 1.04884C32.1798 0.552442 30.7235 0.216173 28.5951 0.120096C26.4586 0.0240192 25.7785 0 20.3534 0C14.9203 0 14.2402 0.0240192 12.1118 0.120096C9.98335 0.216173 8.52706 0.560448 7.2548 1.04884C5.93454 1.56125 4.81431 2.24179 3.71009 3.35468C2.60587 4.46757 1.90973 5.58047 1.40563 6.89352C0.917534 8.16653 0.573465 9.6237 0.477446 11.7534C0.381427 13.8911 0.357422 14.5717 0.357422 20C0.357422 25.4364 0.381427 26.1169 0.477446 28.2466C0.573465 30.3763 0.917534 31.8335 1.40563 33.1065C1.91773 34.4195 2.59787 35.5404 3.71009 36.6453C4.81431 37.7582 5.93454 38.4468 7.2468 38.9512C8.51905 39.4476 9.97535 39.7838 12.1038 39.8799C14.2402 39.976 14.9203 40 20.3454 40C25.7785 40 26.4586 39.976 28.5871 39.8799C30.7155 39.7838 32.1718 39.4396 33.444 38.9512C34.7563 38.4388 35.8765 37.7582 36.9807 36.6453C38.085 35.5324 38.7811 34.4195 39.2852 33.1065C39.7813 31.8335 40.1174 30.3763 40.2134 28.2466C40.3094 26.1089 40.3334 25.4283 40.3334 20C40.3334 14.5717 40.3174 13.8831 40.2214 11.7534ZM36.6287 28.0865C36.5407 30.04 36.2126 31.1049 35.9405 31.8014C35.5805 32.7302 35.1404 33.4027 34.4362 34.1073C33.7321 34.8119 33.068 35.2362 32.1318 35.6125C31.4276 35.8847 30.3634 36.213 28.419 36.301C26.3146 36.3971 25.6825 36.4211 20.3374 36.4211C14.9923 36.4211 14.3602 36.3971 12.2558 36.301C10.3034 36.213 9.2392 35.8847 8.54306 35.6125C7.61487 35.2522 6.94274 34.8119 6.2386 34.1073C5.53446 33.4027 5.11037 32.7382 4.7343 31.8014C4.46224 31.0969 4.13418 30.032 4.04616 28.0865C3.95014 25.9808 3.92614 25.3483 3.92614 20C3.92614 14.6517 3.95014 14.0192 4.04616 11.9135C4.13418 9.95997 4.46224 8.89512 4.7343 8.19856C5.09437 7.26982 5.53446 6.59728 6.2386 5.89271C6.94274 5.18815 7.60687 4.76381 8.54306 4.38751C9.2472 4.11529 10.3114 3.78703 12.2558 3.69896C14.3602 3.60288 14.9923 3.57886 20.3374 3.57886C25.6825 3.57886 26.3146 3.60288 28.419 3.69896C30.3714 3.78703 31.4356 4.11529 32.1318 4.38751C33.06 4.7478 33.7321 5.18815 34.4362 5.89271C35.1404 6.59728 35.5645 7.26181 35.9405 8.19856C36.2126 8.90312 36.5407 9.96798 36.6287 11.9135C36.7247 14.0192 36.7487 14.6517 36.7487 20C36.7487 25.3483 36.7167 25.9808 36.6287 28.0865Z" fill="white"/>
<path d="M20.3375 9.71973C14.6564 9.71973 10.0635 14.3234 10.0635 20C10.0635 25.6845 14.6644 30.2802 20.3375 30.2802C26.0107 30.2802 30.6116 25.6685 30.6116 20C30.6116 14.3154 26.0187 9.71973 20.3375 9.71973ZM20.3375 26.6693C16.6568 26.6693 13.6722 23.6829 13.6722 20C13.6722 16.317 16.6568 13.3306 20.3375 13.3306C24.0183 13.3306 27.0029 16.317 27.0029 20C27.0029 23.6829 24.0183 26.6693 20.3375 26.6693Z" fill="white"/>
<path d="M31.0116 11.7213C32.3373 11.7213 33.412 10.6459 33.412 9.3194C33.412 7.99286 32.3373 6.91748 31.0116 6.91748C29.6858 6.91748 28.6111 7.99286 28.6111 9.3194C28.6111 10.6459 29.6858 11.7213 31.0116 11.7213Z" fill="white"/>
<path d="M0.333374 20C0.333374 25.4364 0.357379 26.1169 0.453398 28.2466C0.549417 30.3763 0.893486 31.8335 1.38158 33.1065C1.89369 34.4195 2.57382 35.5404 3.68604 36.6453C4.79027 37.7502 5.91049 38.4468 7.22275 38.9512C8.49501 39.4476 9.9513 39.7838 12.0797 39.8799C14.2162 39.976 14.8963 40 20.3214 40C25.7545 40 26.4346 39.976 28.563 39.8799C30.6914 39.7838 32.1477 39.4396 33.42 38.9512C34.7323 38.4388 35.8525 37.7582 36.9567 36.6453C38.0609 35.5404 38.7571 34.4195 39.2612 33.1065C39.7573 31.8335 40.0933 30.3763 40.1894 28.2466C40.2854 26.1089 40.3094 25.4283 40.3094 20C40.3094 14.5637 40.2854 13.8831 40.1894 11.7534C40.0933 9.6237 39.7493 8.16653 39.2612 6.89352C38.7491 5.58047 38.0689 4.45957 36.9567 3.35468C35.8605 2.24179 34.7403 1.55324 33.428 1.04884C32.1557 0.552442 30.6994 0.216173 28.571 0.120096C26.4346 0.0240192 25.7545 0 20.3294 0C14.8963 0 14.2162 0.0240192 12.0877 0.120096C9.9593 0.216173 8.50301 0.560448 7.23075 1.04884C5.91849 1.56125 4.79827 2.24179 3.69405 3.35468C2.58983 4.46757 1.89369 5.58047 1.38959 6.89352C0.893486 8.16653 0.549417 9.6237 0.453398 11.7534C0.357379 13.8831 0.333374 14.5637 0.333374 20ZM3.9421 20C3.9421 14.6597 3.9661 14.0192 4.06212 11.9135C4.15014 9.95997 4.4782 8.89512 4.75026 8.19856C5.11033 7.26982 5.55042 6.59728 6.25456 5.89271C6.9587 5.18815 7.62283 4.76381 8.55902 4.38751C9.26316 4.11529 10.3274 3.78703 12.2718 3.69896C14.3762 3.60288 15.0083 3.57886 20.3534 3.57886C25.6984 3.57886 26.3306 3.60288 28.435 3.69896C30.3874 3.78703 31.4516 4.11529 32.1477 4.38751C33.0759 4.7478 33.7481 5.18815 34.4522 5.89271C35.1563 6.59728 35.5804 7.26181 35.9565 8.19856C36.2286 8.90312 36.5566 9.96798 36.6446 11.9135C36.7407 14.0192 36.7647 14.6517 36.7647 20C36.7647 25.3483 36.7407 25.9808 36.6446 28.0865C36.5566 30.04 36.2286 31.1049 35.9565 31.8014C35.5964 32.7302 35.1563 33.4027 34.4522 34.1073C33.7481 34.8119 33.0839 35.2362 32.1477 35.6125C31.4436 35.8847 30.3794 36.213 28.435 36.301C26.3306 36.3971 25.6984 36.4211 20.3534 36.4211C15.0083 36.4211 14.3762 36.3971 12.2718 36.301C10.3194 36.213 9.25516 35.8847 8.55902 35.6125C7.63083 35.2522 6.9587 34.8119 6.25456 34.1073C5.55042 33.4027 5.12633 32.7382 4.75026 31.8014C4.4782 31.0969 4.15014 30.032 4.06212 28.0865C3.9581 25.9808 3.9421 25.3403 3.9421 20Z" fill="white"/>
</svg>
