<svg width="41" height="40" viewBox="0 0 41 40" fill="none" xmlns="http://www.w3.org/2000/svg">
<path d="M0.333374 4.64646C0.333374 3.29964 0.783837 2.18853 1.68473 1.31313C2.58561 0.437697 3.75681 0 5.19824 0C6.61395 0 7.75936 0.43095 8.63453 1.29293C9.53542 2.18182 9.98588 3.34004 9.98588 4.76768C9.98588 6.06061 9.54832 7.13802 8.67314 8C7.77226 8.88889 6.5882 9.33333 5.12102 9.33333H5.08241C3.66669 9.33333 2.52129 8.88889 1.64612 8C0.770942 7.11111 0.333374 5.99325 0.333374 4.64646ZM0.835305 40V13.0101H9.40673V40H0.835305ZM14.1558 40H22.7272V24.9293C22.7272 23.9865 22.8302 23.2592 23.0361 22.7475C23.3964 21.8316 23.9434 21.0572 24.677 20.4242C25.4106 19.7912 26.3308 19.4747 27.4376 19.4747C30.3205 19.4747 31.7619 21.5084 31.7619 25.5758V40H40.3334V24.5253C40.3334 20.5387 39.4325 17.5152 37.6307 15.4545C35.8289 13.3939 33.4479 12.3636 30.4878 12.3636C27.1674 12.3636 24.5805 13.8586 22.7272 16.8485V16.9293H22.6886L22.7272 16.8485V13.0101H14.1558C14.2072 13.872 14.233 16.5522 14.233 21.0505C14.233 25.5488 14.2072 31.8653 14.1558 40Z" fill="white"/>
</svg>
